<?xml version='1.0' encoding='iso-8859-1'?>
<svg version="1.1" xmlns="http://www.w3.org/2000/svg" viewBox="0 0 137.145 137.145" xmlns:xlink="http://www.w3.org/1999/xlink" enable-background="new 0 0 137.145 137.145">
  <g>
    <g>
      <path d="m109.716,0h-82.287c-15.148,0-27.429,12.281-27.429,27.429v82.287c0,15.148 12.28,27.429 27.429,27.429h82.286c15.148,0 27.429-12.281 27.429-27.429v-82.287c0-15.148-12.28-27.429-27.428-27.429zm13.714,102.859c0,11.361-9.21,20.571-20.571,20.571h-68.572c-11.362,0-20.572-9.21-20.572-20.571v-68.573c0-11.362 9.21-20.572 20.572-20.572h68.572c11.361,0 20.571,9.21 20.571,20.572v68.573zm-15.39-14.791l-20.291-10.292-1.554-.551c-0.975,0-1.768,0.399-2.376,1.194l-8.683,7.903c-1.097,1.102-2.317,1.256-3.657,0.459-4.083-2.512-7.951-5.605-11.608-9.281-3.473-3.43-6.521-7.32-9.14-11.67-0.792-1.287-0.671-2.511 0.366-3.676l8.683-8.637c0.731-0.735 1.096-1.53 1.096-2.389 0-0.49-0.153-1.041-0.457-1.655l-11.15-20.399c-0.609-1.102-1.494-1.654-2.651-1.654-6.155,0.552-10.725,2.329-13.71,5.33-2.804,2.818-4.51,6.464-5.119,10.935-0.609,4.473-0.229,9.251 1.143,14.335 1.371,5.086 3.702,10.383 6.992,15.897 3.29,5.513 7.312,10.69 12.065,15.529 6.398,6.433 13.237,11.426 20.519,14.978 7.281,3.554 14.06,5.33 20.337,5.33 6.337,0 11.364-1.868 15.081-5.605 3.412-3.369 5.331-7.811 5.758-13.324 0.001-1.225-0.548-2.144-1.644-2.757z"/>
    </g>
  </g>
</svg>
